<svg xmlns="http://www.w3.org/2000/svg" width="96" height="96" fill="none"><g clip-path="url(#a)"><rect width="96" height="96" fill="#7287FD" rx="48"/><path fill="#fff" d="M22.966 72V24.48H34.63V72H22.966Zm5.832-16.92v-9.504H52.99v9.504H28.798Zm0-20.88v-9.72h26.64v9.72h-26.64ZM61.76 56.88l-2.376-32.4h12.744l-2.376 32.4H61.76Zm4.464 16.056c-2.448 0-4.296-.528-5.544-1.584-1.2-1.056-1.8-2.688-1.8-4.896 0-2.256.6-3.912 1.8-4.968 1.248-1.056 3.096-1.584 5.544-1.584 2.496 0 4.368.528 5.616 1.584 1.248 1.056 1.872 2.712 1.872 4.968 0 4.32-2.496 6.48-7.488 6.48Z"/></g><defs><clipPath id="a"><rect width="96" height="96" fill="#fff" rx="48"/></clipPath></defs></svg>